<?xml version="1.0" encoding="utf-8"?>
<svg viewBox="0 0 500 500" width="500" height="500" xmlns="http://www.w3.org/2000/svg">
  <circle style="fill: rgb(255, 255, 255);" cx="36.363" cy="57.388" r="19.924"/>
  <rect x="35.776" y="37.456" width="58.81" height="39.992" style="fill: rgb(255, 255, 255);">
    <title>Logo</title>
  </rect>
  <circle style="fill: rgb(255, 255, 255);" cx="94.584" cy="58.01" r="19.924">
    <title>Logo</title>
  </circle>
  <rect x="363.152" y="95.782" width="275.425" height="39.992" style="fill: rgb(255, 255, 255);" transform="matrix(0, 1, -1, 0, 209.687408, -308.782959)">
    <title>Logo</title>
  </rect>
  <circle style="fill: rgb(255, 255, 255);" cx="93.91" cy="333.715" r="19.924">
    <title>Logo</title>
  </circle>
  <rect x="89.008" y="313.719" width="366.579" height="39.992" style="fill: rgb(255, 255, 255);">
    <title>Logo</title>
  </rect>
  <circle style="fill: rgb(255, 255, 255);" cx="450.687" cy="333.333" r="19.924">
    <title>Logo</title>
  </circle>
  <rect x="363.152" y="95.782" width="275.425" height="39.992" style="fill: rgb(255, 255, 255);" transform="matrix(0, 1, -1, 0, 566.299011, -297.510376)">
    <title>Logo</title>
  </rect>
  <circle style="fill: rgb(255, 255, 255);" cx="450.687" cy="69.073" r="19.924">
    <title>Logo</title>
  </circle>
  <rect x="93.832" y="277.455" width="347.535" height="9.606" style="fill: rgb(255, 255, 255);">
    <title>Logo</title>
  </rect>
  <rect x="100.338" y="240.188" width="347.535" height="9.606" style="fill: rgb(255, 255, 255);">
    <title>Logo</title>
  </rect>
  <rect x="96.156" y="199.248" width="347.535" height="9.606" style="fill: rgb(255, 255, 255);">
    <title>Logo</title>
  </rect>
  <rect x="102.662" y="161.982" width="347.535" height="9.606" style="fill: rgb(255, 255, 255);">
    <title>Logo</title>
  </rect>
  <rect x="92.439" y="122.797" width="347.535" height="9.606" style="fill: rgb(255, 255, 255);">
    <title>Logo</title>
  </rect>
  <rect x="98.944" y="85.53" width="347.535" height="9.606" style="fill: rgb(255, 255, 255);">
    <title>Logo</title>
  </rect>
  <rect x="76.415" y="282.994" width="241.847" height="9.606" style="fill: rgb(255, 255, 255);" transform="matrix(0, 1, -1, 0, 432.7677, 8.818787)">
    <title>Logo</title>
  </rect>
  <rect x="80.943" y="245.727" width="241.847" height="9.606" style="fill: rgb(255, 255, 255);" transform="matrix(0, 1, -1, 0, 432.7677, 8.818787)">
    <title>Logo</title>
  </rect>
  <rect x="78.032" y="204.788" width="241.847" height="9.606" style="fill: rgb(255, 255, 255);" transform="matrix(0, 1, -1, 0, 432.7677, 8.818787)">
    <title>Logo</title>
  </rect>
  <rect x="82.561" y="167.521" width="241.847" height="9.606" style="fill: rgb(255, 255, 255);" transform="matrix(0, 1, -1, 0, 432.7677, 8.818787)">
    <title>Logo</title>
  </rect>
  <rect x="73.601" y="137.114" width="235.933" height="10.263" style="fill: rgb(255, 255, 255);" transform="matrix(0, 1, -1, 0, 441.545471, 16.576948)">
    <title>Logo</title>
  </rect>
  <rect x="79.973" y="91.069" width="241.847" height="9.606" style="fill: rgb(255, 255, 255);" transform="matrix(0, 1, -1, 0, 432.7677, 8.818787)">
    <title>Logo</title>
  </rect>
  <rect x="76.062" y="91.069" width="230.02" height="9.606" style="fill: rgb(255, 255, 255);" transform="matrix(0, 1, -1, 0, 469.126617, 14.274825)">
    <title>Logo</title>
  </rect>
  <rect x="79.973" y="91.069" width="241.847" height="9.606" style="fill: rgb(255, 255, 255);" transform="matrix(0, 1, -1, 0, 502.452026, 5.398205)">
    <title>Logo</title>
  </rect>
  <rect x="89.009" y="352.338" width="5.881" height="22.544" style="fill: rgb(255, 255, 255);">
    <title>Logo</title>
  </rect>
  <circle style="fill: rgb(255, 255, 255);" cx="91.848" cy="374.635" r="3.224">
    <title>Logo</title>
  </circle>
  <rect x="91.981" y="368.198" width="347.535" height="9.606" style="fill: rgb(255, 255, 255);">
    <title>Logo</title>
  </rect>
  <rect x="88.998" y="374.566" width="5.881" height="9.462" style="fill: rgb(255, 255, 255);">
    <title>Logo</title>
  </rect>
  <rect x="432.85" y="376.019" width="5.881" height="9.462" style="fill: rgb(255, 255, 255);">
    <title>Logo</title>
  </rect>
  <circle style="fill: rgb(255, 255, 255);" cx="93.014" cy="416.925" r="36.25">
    <title>Logo</title>
  </circle>
  <circle style="fill: rgb(255, 255, 255);" cx="432.585" cy="415.154" r="36.25">
    <title>Logo</title>
  </circle>
</svg>